<?xml version="1.0" standalone="no"?>
<!DOCTYPE svg PUBLIC "-//W3C//DTD SVG 20010904//EN"
 "http://www.w3.org/TR/2001/REC-SVG-20010904/DTD/svg10.dtd">
<svg version="1.0" xmlns="http://www.w3.org/2000/svg"
 width="256.000000pt" height="256.000000pt" viewBox="0 0 256.000000 256.000000"
 preserveAspectRatio="xMidYMid meet">

<g transform="translate(0.000000,256.000000) scale(0.100000,-0.100000)"
fill="#FFFFFF" stroke="none">
<path d="M1245 2551 c-11 -5 -29 -19 -40 -31 -19 -21 -20 -38 -23 -581 l-2
-559 -561 -2 -561 -3 -29 -33 c-38 -42 -38 -82 0 -124 l29 -33 561 -3 561 -2
2 -560 3 -560 26 -25 c14 -14 41 -28 61 -31 30 -5 41 -1 69 24 l34 30 3 561 2
561 555 0 555 0 32 29 c27 24 33 36 33 71 0 35 -6 47 -33 71 l-32 29 -555 0
-555 0 -2 561 -3 561 -33 29 c-32 29 -60 35 -97 20z"/>
</g>
</svg>
